<?xml version="1.0" standalone="no"?>
<!DOCTYPE svg PUBLIC "-//W3C//DTD SVG 1.1//EN" "http://www.w3.org/Graphics/SVG/1.1/DTD/svg11.dtd" >
<svg xmlns="http://www.w3.org/2000/svg">
<metadata></metadata>
<defs>
<font id="typoslabserif-lightregular" horiz-adv-x="989" >
<font-face units-per-em="2048" ascent="1638" descent="-410" />
<missing-glyph horiz-adv-x="681" />
<glyph horiz-adv-x="2048" />
<glyph horiz-adv-x="2048" />
<glyph horiz-adv-x="682" />
<glyph horiz-adv-x="536" d="M25 1425q16 -129 80.5 -181t162.5 -52q100 0 165 52t81 181h-82q-18 -84 -58 -112.5t-106 -28.5q-63 0 -103 27.5t-59 113.5h-81z" />
<glyph horiz-adv-x="536" d="M209 1231h158v155h-158v-155z" />
<glyph horiz-adv-x="536" d="M88 1319q0 -74 53.5 -126t126.5 -52q74 0 126 52t52 126t-52 126t-126 52t-127 -52t-53 -126zM162 1319q0 45 30.5 74.5t75.5 29.5q43 0 74 -29.5t31 -74.5t-31 -75t-74 -30q-45 0 -75.5 30t-30.5 75z" />
<glyph unicode="&#xa;" horiz-adv-x="536" d="M16 1167h117l229 283h-157zM344 1167h117l229 283h-158z" />
<glyph horiz-adv-x="536" d="M106 -229q0 -76 46.5 -114t128.5 -30l141 13l-12 75l-84 -14q-43 0 -73 17.5t-30 58.5q0 33 19.5 66.5t49.5 66.5t61.5 60.5t56.5 47.5h-127q-23 -18 -52.5 -45.5t-57.5 -61.5t-47.5 -70t-19.5 -70z" />
<glyph horiz-adv-x="536" d="M4 1450l199 -283h131l198 283h-122l-142 -205l-141 205h-123z" />
<glyph unicode="&#xd;" horiz-adv-x="501" d="M31 0h430v94h-152v1057h-278v-94h159v-963h-159v-94z" />
<glyph horiz-adv-x="317" d="M-309 -37l82 -8l854 1542l-80 8z" />
<glyph d="M29 1057h164v-963h-152v-94h424v94h-154v963h185h127h94v-963h-144v-94h392v94h-129v1057h-213h-127h-185v14q0 117 47.5 168t133.5 51q74 0 111.5 -43t37.5 -100h107l-2 37q-3 37 -26.5 82t-77.5 82t-159 37q-141 0 -215.5 -74t-74.5 -221v-33h-164v-94z" />
<glyph d="M27 1057h166v-963h-152v-94h426v94h-156v963h189v94h-189v12q0 117 48.5 169t170.5 52q66 0 119 -18q39 -12 64 -23v-1249h-140v-94h390v94h-132v1325l-120 41q-4 2 -49 8q-35 4 -73 7.5t-79 3.5q-160 0 -238.5 -74t-78.5 -242v-12h-166v-94z" />
<glyph horiz-adv-x="1071" d="M35 485l186 142v-531h-184v-96h964v440h-108v-344h-551v623l326 246v98l-326 -246v547h219v96h-526v-96h186v-639l-186 -141v-99z" />
<glyph horiz-adv-x="473" d="M31 0h426v94h-148v709l156 127v92l-156 -127v565h-278v-94h159v-567l-159 -129v-92l159 129v-613h-159v-94z" />
<glyph horiz-adv-x="1132" d="M63 0h984v428h-107v-332h-758l854 1250v114h-940v-413h107v317h712l-852 -1247v-117zM297 1835l199 -283h131l198 283h-123l-141 -205l-141 205h-123z" />
<glyph horiz-adv-x="897" d="M86 0h725v307h-104v-213h-500l596 953v104h-709v-283h105v189h481l-594 -951v-106zM186 1450l199 -283h131l199 283h-123l-141 -205l-142 205h-123z" />
<glyph unicode=" "  horiz-adv-x="681" />
<glyph unicode="&#x09;" horiz-adv-x="681" />
<glyph unicode="&#xa0;" horiz-adv-x="681" />
<glyph unicode="!" horiz-adv-x="620" d="M250 2h158v156h-158v-156zM254 1460l20 -1120h97l22 1120h-139z" />
<glyph unicode="&#x22;" horiz-adv-x="882" d="M221 1456l6 -196l15 -244h90l14 241l6 199q0 14 -18.5 21.5t-46.5 7.5q-29 0 -47.5 -7.5t-18.5 -21.5zM528 1456l7 -196l14 -244h90l14 241l6 199q0 14 -18 21.5t-47 7.5t-47.5 -7.5t-18.5 -21.5z" />
<glyph unicode="#" horiz-adv-x="1120" d="M41 489h242l-66 -489h102l66 489h277l-66 -489h102l66 489h266v101h-252l41 293h262v100h-250l66 479h-102l-66 -479h-276l65 479h-102l-66 -479h-258v-100h246l-41 -293h-256v-101zM399 590l41 293h277l-41 -293h-277z" />
<glyph unicode="$" horiz-adv-x="1011" d="M76 -2h71v156q57 -88 164 -131q68 -27 156 -35v-201h84v195h16q174 0 273.5 91t99.5 257v114q0 68 -16.5 121t-57.5 94t-109.5 71t-172.5 50l-33 6v574q94 -23 149 -70q49 -41 78 -98t29 -133v-66l108 -2v455h-71v-139q-33 41 -77 69.5t-97 48.5q-27 10 -56.5 18.5 t-62.5 12.5v207h-84v-199h-31q-166 0 -261 -89t-95 -242v-107q0 -137 82 -212t256 -112l49 -10v-610q-117 23 -180 80q-47 43 -75 101.5t-28 129.5v66l-108 2v-463zM207 1036v92q0 111 66.5 176.5t183.5 65.5h10v-573q-109 29 -182 80q-78 55 -78 159zM551 76v606 q135 -41 192 -88q70 -57 70 -170v-86q0 -123 -68.5 -192.5t-191.5 -69.5h-2z" />
<glyph unicode="%" horiz-adv-x="1576" d="M141 979q0 -156 58.5 -242t175.5 -86h49q119 0 177 84t58 244v160q0 156 -58 241.5t-175 85.5h-49q-117 0 -176.5 -86t-59.5 -241v-160zM231 985v152q0 119 37 185.5t113 66.5h37q80 0 115.5 -67t35.5 -189v-152q0 -123 -35.5 -187.5t-111.5 -64.5h-37q-80 0 -117 66.5 t-37 189.5zM391 -16l86 -11l703 1485h-9l-38 10h-37zM915 307q0 -156 59.5 -240.5t176.5 -84.5h49q119 0 176.5 82.5t57.5 242.5v160q0 156 -58.5 242t-175.5 86h-49q-117 0 -176.5 -86t-59.5 -242v-160zM1006 313v152q0 119 37.5 185.5t113.5 66.5h37q78 0 113.5 -66.5 t35.5 -189.5v-152q0 -123 -35.5 -186.5t-111.5 -63.5h-37q-80 0 -116.5 65.5t-36.5 188.5z" />
<glyph unicode="&#x26;" horiz-adv-x="1427" d="M92 395q0 -68 32 -141.5t87 -134t132 -99t169 -38.5q113 0 207 49t182 166q8 10 15.5 19t15.5 20l203 -236l231 2v82h-147l-218 250q20 31 37 61.5t33 61.5q33 66 61.5 131t53.5 131h133v86h-344v-80h112q-23 -59 -46 -105.5t-50 -99.5q-12 -23 -27.5 -50.5t-33.5 -55.5 l-338 391q72 47 123 86t80 72q68 70 67 237q0 141 -87 207t-224 66q-154 0 -237 -69t-83 -206q0 -59 10.5 -101t31 -79t50 -74t70.5 -84l39 -45q-195 -119 -262 -199q-78 -90 -78 -221zM219 397q0 102 62 174q29 33 83 75t132 95l368 -428q-8 -12 -14 -20 q-74 -104 -155 -156.5t-187 -52.5q-49 0 -100.5 27.5t-93.5 72.5t-68.5 101.5t-26.5 111.5zM354 1194q0 98 55.5 140t143.5 42q92 0 144.5 -43t52.5 -135q0 -129 -58 -192q-47 -51 -164 -129l-51 59q-31 35 -54.5 64.5t-38.5 59.5t-22.5 61.5t-7.5 72.5z" />
<glyph unicode="'" horiz-adv-x="528" d="M199 1456l6 -196l14 -244h90l15 241l6 199q0 14 -18.5 21.5t-47.5 7.5t-47 -7.5t-18 -21.5z" />
<glyph unicode="(" horiz-adv-x="552" d="M147 588q0 -174 26 -319.5t68 -261.5t96 -203t109 -146l72 37q-49 57 -96 143t-84 197.5t-58.5 250t-21.5 302.5t21.5 302t58.5 250.5t84 198.5t96 144l-72 37q-55 -59 -109 -146.5t-96 -204t-68 -262t-26 -319.5z" />
<glyph unicode=")" horiz-adv-x="552" d="M35 -305l71 -37q57 59 111.5 146t95.5 203t67 261.5t26 319.5t-26 319.5t-67 262t-95 203.5t-112 147l-71 -37q51 -57 98 -143.5t83 -199t57.5 -250.5t21.5 -302t-21.5 -302.5t-57.5 -250t-83 -197.5t-98 -143z" />
<glyph unicode="*" horiz-adv-x="765" d="M72 1008l51 -93l225 150l-16 -268h102l-16 268l225 -150l51 93l-239 118l239 119l-51 92l-225 -149l16 268h-102l16 -268l-225 149l-51 -92l239 -119z" />
<glyph unicode="+" horiz-adv-x="1267" d="M94 485h484v-485h114v485h482v115h-482v479h-114v-479h-484v-115z" />
<glyph unicode="," horiz-adv-x="475" d="M109 -281h96l114 283l3 2v47v107q-37 0 -74 -1t-76 -1v-152h39z" />
<glyph unicode="-" horiz-adv-x="724" d="M113 670h501v98h-501v-98z" />
<glyph unicode="." horiz-adv-x="475" d="M90 -25h156v156h-156v-156z" />
<glyph unicode="/" horiz-adv-x="745" d="M35 -10l106 -10l574 1478l-107 10z" />
<glyph unicode="0" horiz-adv-x="1024" d="M88 606q0 -293 94 -458.5t289 -165.5h78q195 0 291 165.5t96 458.5v236q0 293 -95.5 458.5t-289.5 165.5h-78q-195 0 -290 -165.5t-95 -458.5v-236zM213 606v236q0 252 63.5 391t204.5 139h58q143 0 207.5 -139t64.5 -391v-236q0 -252 -64.5 -391t-205.5 -139h-58 q-143 0 -206.5 139t-63.5 391z" />
<glyph unicode="1" horiz-adv-x="1024" d="M215 1171l31 -77q39 31 73.5 55.5t67.5 50t64.5 55t62.5 68.5v-1229h-199v-94h510v94h-192v1356h-115q-147 -156 -303 -279z" />
<glyph unicode="2" horiz-adv-x="1024" d="M96 0h834v338h-115v-234h-610v43q57 86 116.5 162t137.5 152t156.5 153.5t143 151.5t104.5 141.5t40 122.5v98q0 160 -91 249t-257 89h-66q-172 0 -271 -104.5t-99 -288.5v-45h117v47q0 135 67.5 212t183.5 77h66q106 0 166.5 -63.5t60.5 -176.5v-69q0 -51 -31.5 -110.5 t-87 -125t-128 -137.5t-154.5 -150q-88 -86 -154.5 -166.5t-128.5 -179.5v-186z" />
<glyph unicode="3" horiz-adv-x="1024" d="M104 362q0 -186 93.5 -283t267.5 -97h90q166 0 261 97t95 269v82q0 88 -29.5 148.5t-76.5 97.5t-104.5 55.5t-112.5 24.5q66 25 122 69.5t98 98t66.5 111t24.5 106.5v41q0 61 -28.5 113.5t-81 90t-124 59t-157.5 21.5q-84 0 -154.5 -21.5t-123 -60t-82 -95t-29.5 -124.5 v-112h121v80q0 104 76.5 167.5t195.5 63.5q117 0 191.5 -61.5t74.5 -153.5q0 -53 -27.5 -109.5t-74.5 -106.5t-111.5 -89t-138.5 -58v-98h68q143 0 217.5 -60.5t74.5 -189.5v-90q0 -123 -64.5 -193.5t-174.5 -70.5h-78q-111 0 -175.5 76t-64.5 205v32h-125v-35z" />
<glyph unicode="4" horiz-adv-x="1024" d="M49 408h615v-314h-160v-94h409v94h-131v314h181v94h-181v946h-153l-580 -907v-133zM145 502l519 823v-823h-519z" />
<glyph unicode="5" horiz-adv-x="1024" d="M119 348q0 -367 395 -366q215 0 317.5 106.5t102.5 329.5v94q0 197 -93 299t-272 102q-92 0 -175 -31.5t-136 -93.5l21 553h608l2 107h-725l-21 -805h80q113 166 338 166q125 0 190.5 -80t65.5 -223v-98q0 -160 -74.5 -242t-222.5 -82q-137 0 -210.5 67.5t-73.5 196.5v31 h-117v-31z" />
<glyph unicode="6" horiz-adv-x="1024" d="M100 526q0 -291 97.5 -417.5t275.5 -126.5h86q174 0 273.5 110.5t99.5 300.5v107q0 186 -102.5 286.5t-294.5 100.5q-125 0 -220 -62q-55 -35 -100 -141v55q0 303 79 466t265 167q129 2 186.5 -61.5t57.5 -192.5v-22h117v32q0 178 -92.5 258t-266.5 80 q-236 0 -348.5 -180t-112.5 -502v-258zM207 434q0 72 20.5 138.5t63.5 117.5q86 102 231 103q141 0 217 -81t76 -229v-94q0 -143 -68.5 -228t-191.5 -85h-70q-129 0 -198 98q-41 55 -60.5 123t-19.5 137z" />
<glyph unicode="7" horiz-adv-x="1024" d="M88 1073h113v270h616q-84 -186 -152.5 -345.5t-133 -316.5t-128 -320.5t-137.5 -360.5h129q68 186 129.5 348t126 318.5t134 319.5t153.5 353v109h-850v-375z" />
<glyph unicode="8" horiz-adv-x="1024" d="M106 346q0 -172 95.5 -268t263.5 -96h98q166 0 261.5 99t95.5 273v78q0 125 -70 213t-199 111q135 31 197.5 114.5t62.5 202.5v62q0 154 -96 242.5t-264 88.5h-70q-166 0 -261 -88t-95 -248v-61q0 -104 57.5 -192.5t194.5 -120.5q-129 -20 -200 -105.5t-71 -226.5v-78z M223 354v78q0 129 71 203t193 74h62q117 0 185.5 -73t68.5 -202v-78q0 -135 -65.5 -207.5t-184.5 -72.5h-78q-123 0 -187.5 71.5t-64.5 206.5zM242 1065v57q0 117 63.5 183.5t173.5 66.5h74q113 0 177.5 -65.5t64.5 -182.5v-57q0 -123 -68 -193.5t-184 -70.5h-54 q-113 0 -180 71.5t-67 190.5z" />
<glyph unicode="9" horiz-adv-x="1024" d="M100 948q0 -186 102.5 -286.5t295.5 -100.5q123 0 219 62q55 35 100 141v-55q0 -303 -79 -466t-265 -167q-129 -2 -186.5 61.5t-57.5 192.5v22h-116v-33q0 -178 92 -257.5t266 -79.5q236 0 348.5 180t112.5 502v258q0 291 -97.5 417.5t-275.5 126.5h-86 q-174 0 -273.5 -110.5t-99.5 -300.5v-107zM217 965v94q0 143 68.5 228t191.5 85h70q126 0 198 -98q39 -55 59.5 -123t20.5 -139q0 -70 -20.5 -136.5t-63.5 -117.5q-86 -102 -231 -103q-141 0 -217 81t-76 229z" />
<glyph unicode=":" horiz-adv-x="499" d="M168 2h158v156h-158v-156zM168 821h158v156h-158v-156z" />
<glyph unicode=";" horiz-adv-x="499" d="M131 -281h96l117 332v107h-18h-158v-156h63zM168 821h158v156h-158v-156z" />
<glyph unicode="&#x3c;" horiz-adv-x="1267" d="M68 481l1130 -534v116l-1003 476l1003 475v116l-1130 -534v-115z" />
<glyph unicode="=" horiz-adv-x="1267" d="M70 287h1130v114h-1130v-114zM70 676h1130v115h-1130v-115z" />
<glyph unicode="&#x3e;" horiz-adv-x="1267" d="M68 -53l1130 534v115l-1130 534v-116l1003 -475l-1003 -476v-116z" />
<glyph unicode="?" d="M123 1102h123v43q0 238 248 237q125 0 190.5 -59t65.5 -164v-102q0 -55 -15.5 -99.5t-41 -80t-58.5 -64.5t-66 -53q-100 -55 -150 -111.5t-50 -136.5v-174h123v137q0 70 46 122t142 112q90 55 142 130.5t52 204.5v132q0 137 -88 220t-286 83q-201 0 -289 -85t-88 -233 v-59zM352 -2h158v156h-158v-156z" />
<glyph unicode="@" horiz-adv-x="1693" d="M84 557q0 -160 59.5 -303t166 -251.5t256 -172t327.5 -63.5q0 -2 -3 12t-6 31.5t-6.5 33t-0.5 15.5q-133 0 -257 51t-220.5 142t-154 217t-57.5 276q0 147 56.5 275t152 221.5t222 147.5t268.5 54q131 0 244.5 -44t196.5 -119.5t130 -174t47 -207.5q0 -104 -31.5 -196 t-81 -161t-106.5 -110t-108 -41q-39 0 -64 27q-14 14 -14 47q0 10 1 21.5t5 25.5l186 650h-121l-38 -136q-27 94 -86.5 135t-120.5 41q-109 0 -199 -51t-154.5 -133t-101.5 -182t-37 -199q0 -84 22.5 -147.5t62.5 -106.5t92.5 -64.5t111.5 -21.5q43 0 84 14.5t76 38t61.5 51 t44.5 54.5q18 -94 60.5 -128t83.5 -34q86 0 171 48t152.5 130t109.5 190.5t42 231.5q0 129 -54.5 246t-150.5 205t-229.5 140t-292.5 52q-166 0 -311.5 -64.5t-253 -172t-170 -247.5t-62.5 -294zM553 406q0 88 27.5 179t77 163.5t115 118.5t142.5 46q82 0 124 -63.5 t42 -167.5q0 -59 -22.5 -143t-66.5 -161t-108.5 -132.5t-148.5 -55.5q-35 0 -67.5 12.5t-58 39t-41 67.5t-15.5 97z" />
<glyph unicode="A" horiz-adv-x="1482" d="M59 0h447v96h-189l142 426h563l139 -426h-188v-96h448v96h-131l-461 1364h-172l-469 -1364h-129v-96zM489 618l252 752l250 -752h-502z" />
<glyph unicode="B" horiz-adv-x="1165" d="M51 0h686q80 0 147.5 25.5t117 71.5t76 110.5t26.5 142.5v103q0 61 -17.5 119.5t-53.5 102.5t-90 71.5t-128 31.5q135 12 196.5 95t61.5 212v78q0 162 -88 229.5t-268 67.5h-666v-96h187v-1268h-187v-96zM358 96v627h344q135 0 205 -72.5t70 -201.5v-82q0 -135 -76 -203 t-219 -68h-324zM358 819v545h365q104 0 162.5 -53.5t58.5 -165.5v-74q0 -123 -65.5 -187.5t-188.5 -64.5h-332z" />
<glyph unicode="C" horiz-adv-x="1257" d="M104 596q0 -141 36 -255t104.5 -193.5t167 -122.5t221.5 -43q205 0 346 92t190 278v101h-125v-68q-41 -154 -145 -226.5t-258 -72.5q-197 0 -302.5 137t-105.5 377v264q0 240 105.5 375t304.5 135q74 0 140.5 -19.5t120.5 -59.5t93 -99t58 -139v-68h106v471h-71v-172 q-55 86 -171 138.5t-282 52.5q-127 0 -225.5 -42t-167 -122t-104.5 -192.5t-36 -254.5v-272z" />
<glyph unicode="D" horiz-adv-x="1308" d="M37 0h571q295 0 444.5 151.5t149.5 450.5v262q0 285 -147.5 440.5t-419.5 155.5h-598v-96h184v-1268h-184v-96zM340 96v1268h281q215 0 333.5 -131t118.5 -361v-270q0 -242 -122 -374t-351 -132h-260z" />
<glyph unicode="E" horiz-adv-x="1140" d="M49 0h1030v428h-108v-332h-617v602h383v-182h92v453h-92v-174l-383 2v567h611v-315h106v411h-1022v-96h184v-1268h-184v-96z" />
<glyph unicode="F" horiz-adv-x="1071" d="M39 0h524v96h-219v580l375 -2v-172h92v446h-92l-2 -176l-373 2v590h576v-324h106v420h-987v-96h184v-1268h-184v-96z" />
<glyph unicode="G" horiz-adv-x="1320" d="M61 596q0 -141 36 -255t103.5 -193.5t164 -122.5t219.5 -43q147 0 275 50t200 148v-180h80v639h121v96h-494v-94h254v-229q-25 -154 -137.5 -240t-286.5 -86q-193 0 -299.5 136t-106.5 370v276q0 233 105.5 369.5t296.5 136.5q166 0 278.5 -78.5t149.5 -226.5v-80h110 v471h-71v-166q-61 86 -181 135.5t-282 49.5q-256 0 -395.5 -163t-139.5 -452v-268z" />
<glyph unicode="H" horiz-adv-x="1423" d="M57 0h488v96h-185v592l699 2v-594h-185v-96h488v96h-182v1268h182v96h-488v-96h185v-571h-699v571h185v96h-488v-96h183v-1268h-183v-96z" />
<glyph unicode="I" horiz-adv-x="567" d="M41 0h487v96h-184v1268h184v96h-487v-96h184v-1268h-184v-96z" />
<glyph unicode="J" horiz-adv-x="821" d="M37 270q0 -141 80 -214.5t221 -73.5q317 0 317 340v1042h146v96h-451v-96h185v-1024q0 -129 -47.5 -191.5t-151.5 -62.5q-211 0 -211 221v53l-88 -34v-56z" />
<glyph unicode="K" horiz-adv-x="1200" d="M39 0h487v96h-184v654l84 -84l477 -570h-145v-96h418v96h-113l-574 678l226 225q111 111 193.5 201t140.5 164h110v96h-418v-96h168q-16 -20 -87.5 -95t-196.5 -204t-196 -204t-87 -95v598h184v96h-487v-96h184v-1268h-184v-96z" />
<glyph unicode="L" horiz-adv-x="1079" d="M51 0h967v440h-109v-344h-553v1268h219v96h-524v-96h185v-1268h-185v-96z" />
<glyph unicode="M" horiz-adv-x="1751" d="M59 1364h189v-1268h-187v-96h476v96h-172v1268l458 -1262h105l458 1262v-1268h-169v-96h473v96h-187v1268h187v96h-381l-432 -1190l-431 1190h-387v-96z" />
<glyph unicode="N" horiz-adv-x="1445" d="M57 0h488v96h-189v1241l703 -1337h160v1364h165v96h-466v-96h186v-1214q-86 170 -171 332.5t-171 322.5t-171 322.5t-171 332.5h-363v-96h185v-1268h-185v-96z" />
<glyph unicode="O" horiz-adv-x="1280" d="M61 602q0 -145 36 -260t104.5 -194.5t167 -122.5t225.5 -43h90q127 0 226.5 43t168 122.5t104.5 194.5t36 260v256q0 143 -36 259t-104.5 196t-168 123t-226.5 43h-90q-127 0 -225.5 -43t-167 -123t-104.5 -196t-36 -259v-256zM190 606v248q0 248 104.5 388t307.5 140h74 q205 0 309.5 -140t104.5 -388v-248q0 -248 -104.5 -388t-309.5 -140h-74q-203 0 -307.5 140t-104.5 388z" />
<glyph unicode="P" horiz-adv-x="1083" d="M39 0h518v96h-215v545h184q98 0 191.5 22.5t166 68.5t116.5 114t44 160v96q0 358 -389 358h-616v-96h184v-1268h-184v-96zM342 737v627h281q154 0 224.5 -64.5t70.5 -205.5v-84q0 -68 -37 -119t-96.5 -85t-133 -51.5t-147.5 -17.5h-162z" />
<glyph unicode="Q" horiz-adv-x="1363" d="M104 602q0 -145 36 -260t104.5 -194.5t167 -122.5t225.5 -43h90q27 0 52.5 2t49.5 6l222 -277h118l-190 283h-115q193 43 295.5 200.5t102.5 405.5v256q0 143 -36 259t-104.5 196t-168 123t-226.5 43h-90q-127 0 -225.5 -43t-167 -123t-104.5 -196t-36 -259v-256z M233 606v248q0 248 104.5 388t307.5 140h74q205 0 309.5 -140t104.5 -388v-248q0 -248 -104.5 -388t-309.5 -140h-74q-203 0 -307.5 140t-104.5 388z" />
<glyph unicode="R" horiz-adv-x="1284" d="M53 0h490v96h-185v584h275q66 0 109.5 -14.5t72.5 -43t46.5 -72.5t29.5 -104q23 -123 38 -200.5t23.5 -124.5t12.5 -67.5t6 -30t3 -11.5t5 -12h244v96h-144l-75 393q-8 43 -22.5 83t-39 71t-60.5 51.5t-87 26.5q61 6 109 36.5t82 79t52.5 108t18.5 124.5v90 q0 88 -22.5 146.5t-66.5 92.5t-113 48t-161 14h-641v-96h185v-1268h-185v-96zM358 776v588h293q70 0 122 -9t87 -33t51.5 -66t16.5 -107v-78q0 -61 -17.5 -115.5t-51.5 -94.5t-84 -62.5t-116 -22.5h-301z" />
<glyph unicode="S" horiz-adv-x="985" d="M55 -2h72v156q66 -94 173.5 -133t260.5 -39q168 0 264.5 92t96.5 258v114q0 98 -32 160t-83 98.5t-116.5 56t-135.5 33t-135.5 27t-116.5 39t-83 69.5t-32 118v90q0 113 67 179t183 66q160 0 256.5 -80.5t96.5 -230.5v-67l108 -3v459h-72v-137q-68 80 -174 118t-235 38 q-166 0 -261.5 -90.5t-95.5 -245.5v-107q0 -127 54.5 -191.5t136.5 -96t176 -46t176 -40t136.5 -78t54.5 -158.5v-86q0 -125 -68 -193.5t-190 -68.5q-168 0 -269.5 84t-101.5 233v66l-111 2v-465z" />
<glyph unicode="T" horiz-adv-x="1034" d="M-96 1010h106v346h369v-1260h-225v-96h571v96h-225v1260h366v-346h107v450h-1069v-450z" />
<glyph unicode="U" horiz-adv-x="1374" d="M59 1364h150v-926q0 -456 430 -456h2h90q211 0 322.5 118.5t111.5 335.5v928h148v96h-467v-96h198v-926q0 -178 -81.5 -269t-243.5 -91h-70q-156 0 -237.5 92t-81.5 266v928h196v96h-467v-96z" />
<glyph unicode="V" horiz-adv-x="1443" d="M59 1364h131l455 -1364h152l454 1364h131v96h-460v-96h202l-403 -1241l-399 1241h196v96h-459v-96z" />
<glyph unicode="W" horiz-adv-x="1789" d="M0 1364h121l291 -1364h166l315 1343l313 -1343h164l293 1364h121v96h-436v-96h196l-256 -1239l-309 1335h-174l-309 -1335l-254 1239h202v96h-444v-96z" />
<glyph unicode="X" horiz-adv-x="1308" d="M2 0h467v96h-201l371 563l369 -563h-199v-96h475v96h-137l-432 664l395 604h145v96h-446v-96h174l-334 -506l-330 506h175v96h-461v-96h145l397 -606l-436 -662h-137v-96z" />
<glyph unicode="Y" horiz-adv-x="1224" d="M4 1364h125l426 -735v-533h-207v-96h535v96h-207v537l422 731h125v96h-437v-96h183l-355 -616l-350 616h195v96h-455v-96z" />
<glyph unicode="Z" horiz-adv-x="1132" d="M63 0h984v428h-107v-332h-758l854 1250v114h-940v-413h107v317h712l-852 -1247v-117z" />
<glyph unicode="[" horiz-adv-x="540" d="M186 -309q0 -20 6.5 -26.5t28.5 -6.5h232v90h-148q-6 0 -8 2v8v1661v8q2 2 8 3h148v90h-232q-23 0 -29 -6.5t-6 -26.5v-1796z" />
<glyph unicode="\" horiz-adv-x="745" d="M35 1468l575 -1488l105 10l-576 1489z" />
<glyph unicode="]" horiz-adv-x="540" d="M92 -252v-90h232q20 0 27 6.5t7 26.5v1796q0 20 -7 26.5t-27 6.5h-232v-90h148l8 -11v-1661l-8 -10h-148z" />
<glyph unicode="^" horiz-adv-x="1302" d="M223 719h125l301 598l301 -598h125l-377 741h-98z" />
<glyph unicode="_" horiz-adv-x="1024" d="M-6 -358v-103h1034v103h-1034z" />
<glyph unicode="`" horiz-adv-x="536" d="M66 1450l227 -283h119l-191 283h-155z" />
<glyph unicode="a" d="M82 281q0 -137 67.5 -219t202.5 -82q123 0 211 39.5t152 138.5l-2 -158h248v94h-138v740q0 166 -77.5 251.5t-233.5 85.5h-78q-154 0 -236.5 -71.5t-82.5 -206.5v-37h114v25q0 196 209 196h2h58q106 0 157.5 -62.5t51.5 -205.5v-145h-271q-184 0 -269 -79t-85 -235v-69z M199 291v41q0 119 63.5 179t216.5 60q92 0 160 -5l68 -5v-153q-10 -72 -34 -132.5t-63 -105.5t-94 -70.5t-129 -25.5q-94 0 -141 62.5t-47 154.5z" />
<glyph unicode="b" horiz-adv-x="1071" d="M29 1366h135v-1305h-101v-61h183v145q68 -86 165 -125.5t226 -39.5q172 0 262 138t90 374v167q0 236 -90 374t-264 138q-100 0 -196.5 -37.5t-155.5 -119.5v446h-254v-94zM274 483v213q0 86 24 156t66 120t102 77.5t134 27.5q131 0 201.5 -116.5t70.5 -315.5v-139 q0 -199 -70.5 -315.5t-201.5 -116.5q-147 0 -236.5 106.5t-89.5 302.5z" />
<glyph unicode="c" horiz-adv-x="952" d="M106 489q0 -117 26 -211t74 -160.5t118.5 -102t160.5 -35.5h119q113 0 191 100t88 278h-105q-6 -51 -21.5 -102t-40 -91t-60 -65.5t-81.5 -25.5h-77q-66 0 -117 30.5t-86 88t-54.5 136.5t-19.5 175v147q0 96 18.5 175t54.5 134.5t86 86t116 30.5q129 0 197.5 -62.5 t90.5 -178.5v-39h97v354h-64v-123q-55 63 -131 103t-199 40q-184 0 -282.5 -135t-98.5 -374v-173z" />
<glyph unicode="d" horiz-adv-x="1071" d="M84 494q0 -240 89 -377t261 -137q233 0 350 155v-135h254v94h-135v1366h-278v-94h159v-350q-57 80 -151 117.5t-193 37.5q-172 0 -264 -139t-92 -379v-159zM201 504v143q0 98 17.5 177t51 135.5t82.5 87t113 30.5q74 0 134 -26.5t103 -76.5t67 -120t24 -156v-221 q0 -92 -24 -166.5t-65.5 -127t-102 -81t-134.5 -28.5q-63 0 -113.5 30.5t-84 87t-51 135.5t-17.5 177z" />
<glyph unicode="e" horiz-adv-x="976" d="M86 489q0 -246 94 -377.5t287 -131.5h94q129 0 218 91t110 265v26h-105v-18q-10 -115 -69.5 -192.5t-167.5 -77.5h-74q-135 0 -203.5 111.5t-68.5 310.5v51h704v108q0 242 -93 379t-273 137h-82q-186 0 -278.5 -137t-92.5 -385v-160zM201 639v20q0 94 17.5 171t51 132.5 t82.5 85t111 29.5h61q129 0 196.5 -97t67.5 -278v-63h-587z" />
<glyph unicode="f" horiz-adv-x="540" d="M43 0h436v94h-166v963h189v94h-189v43q0 106 40 148t120 42l78 -8h24v94l-126 9q-12 1 -24 1q-107 0 -165 -67q-65 -74 -65 -217v-45h-152v-94h152v-963h-152v-94z" />
<glyph unicode="g" horiz-adv-x="1071" d="M84 500q0 -115 23.5 -207t68.5 -156.5t109.5 -100.5t146.5 -36q113 0 205 42t145 134v-176q0 -147 -57 -210.5t-186 -63.5h-66q-113 0 -165 40.5t-60 129.5h-47t-29 -2q-20 0 -41 -31q8 -113 89 -172.5t235 -59.5h90q186 0 270 83t84 274v1069h143v94h-260v-150 q-53 86 -147 128t-205 42q-82 0 -146.5 -35.5t-108.5 -101t-67.5 -159t-23.5 -207.5v-168zM201 508v151q0 92 18.5 169t52 132.5t80.5 86t107 30.5h90q51 0 94 -36.5t74 -101.5t48 -153t17 -192v-29q0 -104 -17 -190t-49 -148.5t-74 -97.5t-91 -35h-86q-59 0 -107.5 31 t-83 85t-54 130t-19.5 168z" />
<glyph unicode="h" horiz-adv-x="1083" d="M33 1366h153v-1272h-149v-94h420v94h-154v666q0 70 21.5 128t60.5 100t92 65.5t119 23.5q100 0 146 -75.5t46 -217.5v-690h-157v-94h420v94h-146v719q0 174 -69.5 266t-210.5 92q-98 0 -183.5 -31.5t-138.5 -113.5v434h-270v-94z" />
<glyph unicode="i" horiz-adv-x="501" d="M31 0h430v94h-152v1057h-278v-94h159v-963h-159v-94zM174 1374q0 -16 6 -22t21 -6h47h45q16 0 22.5 6t6.5 22v51v50q0 16 -6.5 22t-22.5 6h-45h-47q-14 0 -20.5 -6t-6.5 -24v-50v-49z" />
<glyph unicode="j" horiz-adv-x="460" d="M-4 -266v-94l82 -11q127 0 177 53.5t50 172.5v1296h-280v-94h161v-1170q0 -96 -24.5 -128.5t-85.5 -34.5l-62 10h-18zM168 1374q0 -16 6 -22t21 -6h47h45q16 0 22 6t6 22v51v50q0 16 -6 22t-22 6h-45h-47q-14 0 -20.5 -6t-6.5 -24v-50v-49z" />
<glyph unicode="k" d="M39 0h385v94h-115v338l135 168l304 -506h-127v-94h360v94h-104l-338 586l295 377h120v94h-376v-94h137l-406 -490v893h-270v-94h151v-1272h-151v-94z" />
<glyph unicode="l" horiz-adv-x="473" d="M31 0h426v94h-148v1366h-278v-94h159v-1272h-159v-94z" />
<glyph unicode="m" horiz-adv-x="1636" d="M31 1057h159v-963h-153v-94h422v94h-150v672q0 141 83 226t218 85q76 0 117 -71.5t41 -194.5v-717h-160v-94h420v94h-141v680q0 141 76.5 222t207.5 81q82 0 128.5 -71.5t46.5 -194.5v-717h-158v-94h418v94h-142v719q0 174 -71.5 266t-212.5 92q-123 0 -205 -42 t-119 -113q-23 72 -82 113.5t-164 41.5q-92 0 -172 -35.5t-129 -109.5v125h-278v-94z" />
<glyph unicode="n" horiz-adv-x="1083" d="M31 1057h159v-963h-157v-94h422v94h-148v666q0 70 21.5 128t59.5 100t91 65.5t119 23.5q98 0 144 -75.5t46 -217.5v-690h-159v-94h424v94h-148v719q0 174 -68.5 266t-209.5 92q-98 0 -182.5 -31.5t-137.5 -113.5v125h-276v-94z" />
<glyph unicode="o" horiz-adv-x="1015" d="M86 498q0 -240 97.5 -379t275.5 -139h102q178 0 276.5 139t98.5 379v155q0 240 -97.5 379t-277.5 139h-102q-178 0 -275.5 -139t-97.5 -379v-155zM203 508v135q0 199 70.5 316.5t205.5 117.5h62q135 0 206.5 -117.5t71.5 -316.5v-135q0 -199 -71.5 -316.5t-206.5 -117.5 h-62q-135 0 -205.5 117.5t-70.5 316.5z" />
<glyph unicode="p" horiz-adv-x="1083" d="M23 -254v-94h419v94h-153v393q57 -86 145 -122.5t193 -36.5q174 0 265 138t91 374v167q0 236 -89 374t-261 138q-106 0 -194.5 -39.5t-149.5 -125.5v145h-266v-94h147v-1311h-147zM281 453v213q0 199 86 305t233 106q129 0 197.5 -114.5t68.5 -313.5v-147 q0 -197 -68.5 -312.5t-197.5 -115.5q-147 0 -233 103.5t-86 275.5z" />
<glyph unicode="q" horiz-adv-x="1021" d="M86 498q0 -240 97.5 -379t275.5 -139h102h10l220 -273h118l-190 283h-72q139 33 214 165t75 343v155q0 240 -97.5 379t-277.5 139h-102q-178 0 -275.5 -139t-97.5 -379v-155zM203 508v135q0 199 70.5 316.5t205.5 117.5h62q135 0 206.5 -117.5t71.5 -316.5v-135 q0 -199 -71.5 -316.5t-206.5 -117.5h-62q-135 0 -205.5 117.5t-70.5 316.5z" />
<glyph unicode="r" horiz-adv-x="681" d="M37 0h450v94h-178v723q0 70 31 115t80 70.5t109.5 35t117.5 9.5v30q0 27 1 43l1 49q-43 0 -93 -7.5t-99 -28.5t-89 -52.5t-61 -76.5v147h-270v-94h153v-963h-153v-94z" />
<glyph unicode="s" horiz-adv-x="870" d="M76 -14h61v123q53 -72 137 -100.5t189 -28.5q160 0 244 77.5t84 231.5v61q0 115 -44.5 171.5t-109 80t-141 27.5t-141 17t-108.5 49t-44 120v49q0 92 51 152.5t152 60.5q129 0 201.5 -51t72.5 -125v-84h94v334h-61v-96q-47 57 -133 86.5t-199 29.5q-131 0 -212 -80.5 t-81 -228.5v-69q0 -109 43 -159t108.5 -71.5t141.5 -27t141.5 -20.5t108.5 -56t43 -133v-33q0 -111 -57.5 -165t-155.5 -54q-121 0 -203 58t-86 169l-14 39h-82v-354z" />
<glyph unicode="t" horiz-adv-x="610" d="M14 1057h168v-860q0 -111 45 -164t146 -53q92 0 146 52t54 146v49l-81 9q0 -92 -20.5 -127t-72.5 -35q-98 0 -98 137v846h242v94h-242v258h-8l-111 -8v-250h-168v-94z" />
<glyph unicode="u" horiz-adv-x="1083" d="M35 1057h143v-709q0 -180 67.5 -274t209.5 -94q106 0 191 39.5t136 119.5v-139h269v94h-154v1057h-268v-94h151v-666q0 -68 -21.5 -126t-60.5 -100t-91 -66.5t-113 -24.5q-106 0 -152.5 71.5t-46.5 219.5v786h-260v-94z" />
<glyph unicode="v" d="M18 1057h99l311 -1061h129l315 1061h99v94h-359v-94h144l-258 -926l-262 926h141v94h-359v-94z" />
<glyph unicode="w" horiz-adv-x="1544" d="M25 1057h98l270 -1061h139l240 1018l240 -1018h137l272 1061h99v94h-355v-94h142l-228 -916l-237 1010h-99l-38 -14l-238 -994l-227 914h151v94h-366v-94z" />
<glyph unicode="x" horiz-adv-x="991" d="M27 0h323v94l-104 4l250 408l249 -416h-104v-90h324v94h-95l-305 502l281 461h108v94h-325v-86l94 -4l-227 -383l-228 387h107v86h-324v-94h94l281 -465l-305 -498h-94v-94z" />
<glyph unicode="y" d="M18 1057h101l325 -1028l-75 -236q-10 -23 -19 -45l-8 -22h-143v-95h256v95l24 61l410 1270h84v94h-344v-94h145l-270 -873l-266 873h145v94h-365v-94z" />
<glyph unicode="z" horiz-adv-x="897" d="M86 0h725v307h-104v-213h-500l596 953v104h-709v-283h105v189h481l-594 -951v-106z" />
<glyph unicode="{" horiz-adv-x="612" d="M102 547q72 -6 110 -81t38 -194v-352q0 -53 12 -100t41 -83t74 -57.5t110 -21.5h62v84h-70q-51 6 -85 54t-34 165v307q0 145 -43 218t-114 102q72 31 114.5 103.5t42.5 217.5v308q0 117 34 165t85 54h70v84h-62q-66 0 -110.5 -21.5t-73.5 -57.5t-41 -84t-12 -100v-352 q0 -119 -38 -193.5t-110 -80.5v-84z" />
<glyph unicode="|" horiz-adv-x="458" d="M172 -164h115v1667h-115v-1667z" />
<glyph unicode="}" horiz-adv-x="612" d="M61 -258v-84h62q66 0 111 21.5t73.5 57.5t41.5 83t13 100v352q0 119 38 194t110 81v84q-72 6 -110 80.5t-38 193.5v352q0 51 -13 99.5t-41.5 84.5t-74 57.5t-110.5 21.5h-62v-84h70q51 -6 86 -54.5t35 -164.5v-308q0 -145 43 -218t115 -103q-72 -29 -115 -101.5 t-43 -218.5v-307q0 -117 -35 -165t-86 -54h-70z" />
<glyph unicode="~" horiz-adv-x="1302" d="M178 496l72 -82q39 70 80 105.5t96 35.5q72 0 209 -70q139 -70 237 -69q92 0 152.5 50t101.5 120l-73 82q-43 -70 -82 -106t-94 -36q-72 0 -211 70q-137 70 -234 70q-92 0 -153.5 -50.5t-100.5 -119.5z" />
<glyph unicode="&#xa1;" horiz-adv-x="620" d="M229 -248h140l-21 1120h-96zM238 1061h151v153h-151v-153z" />
<glyph unicode="&#xa2;" horiz-adv-x="952" d="M106 489q0 -236 99 -372q94 -131 268 -137v-193h82v193h49q113 0 191 100t88 278h-105q-6 -51 -21.5 -102t-40 -91t-60 -65.5t-81.5 -25.5h-20v999q86 -14 137 -59q35 -33 58.5 -76t33.5 -102v-39h97v354h-64v-123q-29 33 -61.5 57.5t-71.5 44.5q-49 27 -129 37v197h-82 v-193q-174 -6 -268 -137q-98 -135 -99 -372v-173zM221 504v147q0 190 72 310q66 104 180 114v-999q-115 12 -178 117q-74 119 -74 311z" />
<glyph unicode="&#xa3;" horiz-adv-x="1011" d="M51 0h709q27 0 72 -1t73 -1h33v53v301h-115v-252l-8 -3t-20 -3h-469v647h299v97h-297v252q0 154 53 217t158 63q117 0 194.5 -49t87.5 -131v-70h97l2 103q-23 111 -124.5 176t-254.5 65q-174 0 -252 -94t-78 -262v-270h-160v-97h160v-647h-160v-94z" />
<glyph unicode="&#xa4;" horiz-adv-x="1257" d="M29 528h139q8 -127 48 -228t107.5 -172t161 -108.5t209.5 -37.5q205 0 346.5 92t190.5 278v101h-125v-68q-41 -154 -145.5 -226.5t-258.5 -72.5q-180 0 -284.5 118t-120.5 324h862v88h-864v205h864v88h-864q10 219 115.5 342t294.5 123q74 0 140 -19.5t120.5 -59.5 t93.5 -99t57 -139v-68h107v471h-72v-172q-55 86 -171 138.5t-282 52.5q-121 0 -217 -40t-164.5 -114t-106.5 -179.5t-44 -236.5h-137v-88h137v-205h-137v-88z" />
<glyph unicode="&#xa5;" horiz-adv-x="1058" d="M8 1350h109l284 -576h-247v-96h295l26 -53v-115h-323v-96h323v-318h-174v-96h459v96h-174v318h315v96h-315v125l20 43h293v96h-244l283 576h113v96h-377v-96h153l-297 -609l-299 609h166v96h-389v-96z" />
<glyph unicode="&#xa6;" horiz-adv-x="458" d="M172 -164h115v664h-115v-664zM172 840h115v663h-115v-663z" />
<glyph unicode="&#xa7;" horiz-adv-x="1024" d="M129 625q0 -74 9 -126.5t34 -87t70 -57t116 -37.5l205 -45q106 -23 155.5 -75t49.5 -144q0 -61 -17.5 -100t-49 -60.5t-77.5 -28.5t-102 -7q-76 0 -126 15t-79.5 43t-42 69t-12.5 90v35h-110v-50q0 -72 17 -128t58 -96t112 -61.5t177 -21.5q180 0 272.5 66.5t92.5 238.5 q0 111 -50.5 172.5t-125.5 85.5q96 23 144 87.5t48 203.5q0 74 -9 126t-34 87t-70 56.5t-116 37.5l-207 45q-104 23 -153.5 75t-49.5 145q0 61 17.5 99t49 59.5t76.5 29.5t101 8q76 0 127 -15.5t80.5 -43t42 -68.5t12.5 -90v-35h110v49q0 70 -17 127.5t-58 97.5t-112 61.5 t-177 21.5q-182 0 -273.5 -66.5t-91.5 -238.5q0 -111 50.5 -172.5t126.5 -86.5q-96 -23 -144.5 -87t-48.5 -203zM246 639q0 111 36.5 161t112.5 66l254 -73q41 -12 66.5 -26.5t40 -36t19.5 -54.5t5 -82q0 -111 -36.5 -162t-112.5 -67l-254 73q-41 12 -66.5 26.5t-40 37 t-19.5 55.5t-5 82z" />
<glyph unicode="&#xa8;" horiz-adv-x="536" d="M18 1294q0 -31 21.5 -51t52.5 -20t52.5 20t21.5 51t-21.5 51.5t-52.5 20.5t-52.5 -20.5t-21.5 -51.5zM371 1294q0 -31 21.5 -51t51.5 -20q31 0 52.5 20t21.5 51t-21.5 51.5t-52.5 20.5t-52 -20.5t-21 -51.5z" />
<glyph unicode="&#xa9;" horiz-adv-x="1656" d="M80 733q0 -154 59.5 -291t160.5 -238.5t238.5 -160.5t292.5 -59q156 0 293.5 59t238.5 160.5t160.5 238.5t59.5 293q0 154 -59.5 291t-160.5 238.5t-238.5 161t-293.5 59.5t-293 -59.5t-238 -161t-160.5 -238.5t-59.5 -293zM178 735q0 135 51.5 255t140.5 209 t207.5 141.5t253.5 52.5t254 -51.5t208 -140.5t140.5 -210t51.5 -258q0 -135 -51.5 -255t-140.5 -209t-207.5 -141t-254.5 -52q-135 0 -253.5 51t-207.5 140t-140.5 210t-51.5 258zM508 655q0 -156 77 -247t214 -91q113 0 189.5 51.5t105.5 153.5v56h-70v-37 q-23 -86 -79 -125t-142 -39q-109 0 -166 74.5t-57 207.5v146q0 131 57 204.5t168 73.5q80 0 143.5 -43t81.5 -131v-37h60v261h-39v-97q-31 47 -94.5 77t-155.5 30q-139 0 -216 -90t-77 -246v-152z" />
<glyph unicode="&#xaa;" horiz-adv-x="634" d="M45 1016q0 -86 46 -135.5t134 -49.5q82 0 141.5 25t102.5 84l-2 -96h166v57h-92v451q0 207 -207 207h-53q-104 0 -158.5 -44.5t-54.5 -125.5v-23h75v14q6 61 40 91t102 30h39q72 0 105.5 -38t33.5 -126v-88h-180q-123 0 -180.5 -47t-57.5 -145v-41zM123 1022v25 q0 72 42 108.5t146 36.5q61 0 107 1l45 1v-102q-12 -86 -63.5 -144.5t-149.5 -58.5q-63 0 -95 38t-32 95z" />
<glyph unicode="&#xab;" horiz-adv-x="845" d="M127 532l186 -413l95 16l-177 397l179 398l-95 16zM418 532l186 -413l94 16l-176 397l178 398l-94 16z" />
<glyph unicode="&#xac;" horiz-adv-x="1267" d="M70 625h1015v-465h115v579h-1130v-114z" />
<glyph unicode="&#xad;" horiz-adv-x="724" d="M113 670h501v98h-501v-98z" />
<glyph unicode="&#xae;" horiz-adv-x="1656" d="M78 733q0 -154 59.5 -291t160.5 -238.5t238.5 -160.5t292.5 -59q156 0 293.5 59t238.5 160.5t160.5 238.5t59.5 293q0 154 -59.5 291t-160.5 238.5t-238.5 161t-293.5 59.5t-293 -59.5t-238 -161t-160.5 -238.5t-59.5 -293zM176 735q0 135 51.5 255t140.5 209 t207.5 141.5t253.5 52.5t254 -51.5t208 -140.5t140.5 -210t51.5 -258q0 -135 -51.5 -255t-140.5 -209t-207.5 -141t-254.5 -52q-135 0 -253.5 51t-207.5 140t-140.5 210t-51.5 258zM526 328h271v53h-103v321h152q72 0 100.5 -31.5t40.5 -97.5l43 -227v-18h141v53h-79 l-41 217q-10 47 -35 84t-80 43q33 2 58.5 23.5t42 51t25.5 62.5t9 60v39q0 76 -44 124t-146 48h-355v-54h103v-698h-103v-53zM694 756v323h162q78 0 119 -33.5t41 -89.5v-32q0 -27 -11.5 -56.5t-31 -54.5t-48 -41t-65.5 -16h-166z" />
<glyph unicode="&#xaf;" horiz-adv-x="536" d="M-8 1247h549v94h-549v-94z" />
<glyph unicode="&#xb0;" horiz-adv-x="792" d="M100 1206q0 -61 22.5 -115.5t62.5 -94.5t94.5 -62.5t115.5 -22.5t114.5 22.5t93.5 62.5t63.5 94.5t23.5 115.5t-23.5 114.5t-63.5 93.5t-93 63.5t-115 23.5q-61 0 -115.5 -23.5t-94.5 -63.5t-62.5 -93t-22.5 -115zM197 1206q0 86 56 142.5t142 56.5t142.5 -56.5 t56.5 -142.5t-56.5 -142t-142.5 -56t-142 56t-56 142z" />
<glyph unicode="&#xb1;" horiz-adv-x="1267" d="M94 0h1084v115h-1084v-115zM94 616h484v-413h114v413h486v115h-486v414h-114v-414h-484v-115z" />
<glyph unicode="&#xb2;" horiz-adv-x="659" d="M51 569h551v207h-76v-143h-403v26q37 53 78 99.5t90 91.5q51 47 103 94t94 92t69 86t27 76v59q0 98 -59.5 152.5t-170.5 54.5h-43q-113 0 -179 -64.5t-66 -174.5v-29h77v29q0 82 44 129t122 47h43q72 0 111 -39t39 -107v-43q0 -31 -21.5 -66.5t-57.5 -75.5t-84 -84 t-101 -91q-59 -53 -102.5 -102.5t-84.5 -108.5v-115z" />
<glyph unicode="&#xb3;" horiz-adv-x="659" d="M57 791q0 -113 60.5 -172.5t177.5 -59.5h59q111 0 173.5 59.5t62.5 163.5v49q0 55 -20.5 91t-51.5 60t-68.5 34t-74.5 14q43 14 81 42t65.5 60.5t44 67.5t16.5 66v24q0 76 -74 125t-184 49q-111 0 -184.5 -49t-73.5 -135v-68h79v48q6 63 54.5 102t126.5 39t127 -37 t49 -94q0 -31 -18.5 -66t-49.5 -65.5t-74 -54t-92 -35.5v-60h45q193 0 193 -151v-56q0 -76 -42 -118.5t-116 -42.5h-51q-72 0 -115 46t-43 126v18h-82v-20z" />
<glyph unicode="&#xb4;" horiz-adv-x="536" d="M127 1167h117l227 283h-156z" />
<glyph unicode="&#xb5;" horiz-adv-x="1083" d="M35 1057h143v-1405h119v399q18 -27 57 -49t92 -22q111 0 197 39.5t137 119.5v-139h271v94h-154v1057h-270v-94h151v-666q0 -68 -21.5 -126t-60.5 -100t-90 -66.5t-112 -24.5q-106 0 -151.5 71.5t-45.5 219.5v786h-262v-94z" />
<glyph unicode="&#xb6;" horiz-adv-x="1267" d="M166 1081q0 -78 26.5 -140t74.5 -108.5t117 -73t153 -30.5v-967h104v1602h266v-1602h105v1604h18v92h-459q-186 0 -295.5 -101.5t-109.5 -275.5z" />
<glyph unicode="&#xb7;" horiz-adv-x="475" d="M168 678h158v156h-158v-156z" />
<glyph unicode="&#xb8;" horiz-adv-x="536" d="M74 -342q20 -12 79.5 -23.5t127.5 -11.5q63 0 104 40t41 101q0 66 -38 103t-107 37h-29l55 110h-84l-76 -159l23 -29l61 8q35 0 58.5 -19.5t23.5 -50.5t-19.5 -51t-49.5 -20q-53 0 -95.5 14t-50.5 19z" />
<glyph unicode="&#xb9;" horiz-adv-x="659" d="M127 1204q51 37 103.5 81t95.5 91v-749h-131v-58h335v58h-127v827h-75q-100 -96 -201 -170v-80z" />
<glyph unicode="&#xba;" horiz-adv-x="614" d="M27 1147q0 -147 65.5 -231.5t183.5 -84.5h70q119 0 184.5 84.5t65.5 231.5v96q0 147 -63.5 231.5t-186.5 84.5h-70q-119 0 -184 -84t-65 -232v-96zM104 1153v84q0 123 47.5 193.5t139.5 70.5h41q88 0 137 -70.5t49 -193.5v-84q0 -123 -49 -193.5t-137 -70.5h-41 q-92 0 -139.5 70.5t-47.5 193.5z" />
<glyph unicode="&#xbb;" horiz-adv-x="845" d="M139 930l180 -398l-178 -397l95 -16l188 413l-191 414zM430 930l180 -398l-178 -397l94 -16l189 413l-191 414z" />
<glyph unicode="&#xbc;" horiz-adv-x="1536" d="M115 1204q51 37 103 81t95 91v-749h-131v-58h336v58h-127v827h-76q-100 -96 -200 -170v-80zM295 -37l82 -8l854 1542l-80 8zM838 248h405v-191h-106v-57h272v57h-88v191h119v57h-119v578h-100l-383 -553v-82zM901 305l342 504v-504h-342z" />
<glyph unicode="&#xbd;" horiz-adv-x="1536" d="M115 1204q51 37 103 81t95 91v-749h-131v-58h336v58h-127v827h-76q-100 -96 -200 -170v-80zM285 -37l82 -8l854 1542l-80 8zM940 0h551v207h-76v-144h-403v27q37 53 77.5 99.5t90.5 91.5q51 47 103 94t94 92t69 86t27 76v59q0 98 -59.5 152.5t-170.5 54.5h-43 q-113 0 -179.5 -64.5t-66.5 -175.5v-28h78v28q0 82 44 129t122 47h43q72 0 111 -38.5t39 -106.5v-43q0 -31 -21.5 -66.5t-57.5 -75.5t-84 -84t-102 -91q-59 -53 -102 -102.5t-84 -108.5v-115z" />
<glyph unicode="&#xbe;" horiz-adv-x="1536" d="M47 791q0 -113 60.5 -172.5t177.5 -59.5h59q111 0 173.5 59.5t62.5 163.5v49q0 55 -20.5 91t-51.5 60t-69 34t-74 14q43 14 80.5 42t65.5 60.5t44 67.5t16 66v24q0 76 -73.5 125t-184.5 49t-184.5 -49t-73.5 -135v-68h80v48q6 63 54.5 102t125.5 39q78 0 127.5 -37 t49.5 -94q0 -31 -18.5 -66t-49.5 -65.5t-74 -54t-92 -35.5v-60h45q193 0 193 -151v-56q0 -76 -42 -118.5t-116 -42.5h-51q-72 0 -115 46t-43 126v18h-82v-20zM352 -37l82 -8l854 1542l-80 8zM883 248h405v-191h-106v-57h272v57h-88v191h119v57h-119v578h-100l-383 -553v-82z M946 305l342 504v-504h-342z" />
<glyph unicode="&#xbf;" d="M111 39q0 -137 88 -220t286 -83q203 0 290 85t87 232v60h-123v-43q0 -117 -63.5 -177.5t-181.5 -60.5q-125 0 -191.5 59.5t-66.5 163.5v103q0 55 15 99t40.5 80t57.5 64.5t67 53.5q104 55 153 111.5t49 135.5v175h-122v-138q0 -70 -46.5 -122t-142.5 -111 q-90 -55 -143 -131t-53 -205v-131zM483 1061h152v153h-152v-153z" />
<glyph unicode="&#xc0;" horiz-adv-x="1398" d="M16 0h447v96h-189l142 426h563l139 -426h-188v-96h448v96h-131l-461 1364h-172l-469 -1364h-129v-96zM446 618l252 752l250 -752h-502zM489 1835l228 -283h119l-191 283h-156z" />
<glyph unicode="&#xc1;" horiz-adv-x="1398" d="M16 0h447v96h-189l142 426h563l139 -426h-188v-96h448v96h-131l-461 1364h-172l-469 -1364h-129v-96zM446 618l252 752l250 -752h-502zM571 1552h117l227 283h-155z" />
<glyph unicode="&#xc2;" horiz-adv-x="1398" d="M16 0h447v96h-189l142 426h563l139 -426h-188v-96h448v96h-131l-461 1364h-172l-469 -1364h-129v-96zM438 1552h123l141 205l142 -205h123l-199 283h-131zM446 618l252 752l250 -752h-502z" />
<glyph unicode="&#xc3;" horiz-adv-x="1398" d="M16 0h447v96h-189l142 426h563l139 -426h-188v-96h448v96h-131l-461 1364h-172l-469 -1364h-129v-96zM410 1597h79q12 84 78 84q43 0 131 -45q88 -43 144 -43q139 1 155 189h-82q-10 -84 -75 -84q-43 0 -131 43q-88 45 -144 45q-143 0 -155 -189zM446 618l252 752 l250 -752h-502z" />
<glyph unicode="&#xc4;" horiz-adv-x="1435" d="M43 0h446v96h-188l141 426h564l139 -426h-189v-96h449v96h-131l-461 1364h-172l-469 -1364h-129v-96zM473 618l252 752l250 -752h-502zM479 1679q0 -31 21.5 -51t52.5 -20t52.5 20t21.5 51t-21.5 51.5t-52.5 20.5t-52.5 -20.5t-21.5 -51.5zM831 1679q0 -31 21.5 -51 t52.5 -20t52.5 20t21.5 51t-21.5 51.5t-52.5 20.5t-52.5 -20.5t-21.5 -51.5z" />
<glyph unicode="&#xc5;" horiz-adv-x="1398" d="M16 0h447v96h-189l142 426h563l139 -426h-188v-96h448v96h-131l-461 1364h-172l-469 -1364h-129v-96zM446 618l252 752l250 -752h-502zM518 1673q0 -74 53.5 -126t126.5 -52q74 0 126.5 52t52.5 126t-52.5 126t-126.5 52t-127 -52t-53 -126zM592 1673q0 45 30.5 75 t75.5 30q43 0 74 -30t31 -75t-31 -74.5t-74 -29.5q-45 0 -75.5 29.5t-30.5 74.5z" />
<glyph unicode="&#xc6;" horiz-adv-x="1845" d="M16 0h410v96h-188l204 426h516l46 -426h-201v-96h944v428h-109v-332h-514l-63 602h344v-182h92v453h-92v-174l-354 2l-62 567h643v-315h107v411l-955 2l-665 -1366h-103v-96zM483 618l371 752h14l82 -752h-467z" />
<glyph unicode="&#xc7;" horiz-adv-x="1257" d="M104 596q0 -141 36 -254t103.5 -192.5t165 -123.5t220.5 -44l-60 -127l23 -29l61 8q35 0 58.5 -19.5t23.5 -50.5t-19.5 -51t-49.5 -20q-53 0 -95.5 14t-50.5 19l-24 -68q20 -12 79.5 -23.5t126.5 -11.5q63 0 104.5 40t41.5 101q0 66 -38 103t-108 37h-28l41 82 q174 16 291.5 108t162.5 258v101h-125v-68q-41 -154 -145 -226.5t-258 -72.5q-197 0 -302.5 137t-105.5 377v264q0 240 105.5 375t304.5 135q74 0 140.5 -19.5t120.5 -59.5t93 -99t58 -139v-68h106v471h-71v-172q-55 86 -171 138.5t-282 52.5q-127 0 -225.5 -42t-167 -122 t-104.5 -192.5t-36 -254.5v-272z" />
<glyph unicode="&#xc8;" horiz-adv-x="1177" d="M39 0h1030v428h-108v-332h-617v602h383v-182h92v453h-92v-174l-383 2v567h610v-315h107v411h-1022v-96h184v-1268h-184v-96zM373 1835l227 -283h119l-191 283h-155z" />
<glyph unicode="&#xc9;" horiz-adv-x="1177" d="M39 0h1030v428h-108v-332h-617v602h383v-182h92v453h-92v-174l-383 2v567h610v-315h107v411h-1022v-96h184v-1268h-184v-96zM455 1552h116l228 283h-156z" />
<glyph unicode="&#xca;" horiz-adv-x="1177" d="M39 0h1030v428h-108v-332h-617v602h383v-182h92v453h-92v-174l-383 2v567h610v-315h107v411h-1022v-96h184v-1268h-184v-96zM322 1552h122l142 205l141 -205h123l-199 283h-131z" />
<glyph unicode="&#xcb;" horiz-adv-x="1177" d="M39 0h1030v428h-108v-332h-617v602h383v-182h92v453h-92v-174l-383 2v567h610v-315h107v411h-1022v-96h184v-1268h-184v-96zM336 1679q0 -31 21.5 -51t52.5 -20t52 20t21 51t-21.5 51.5t-51.5 20.5q-31 0 -52.5 -20.5t-21.5 -51.5zM688 1679q0 -31 21.5 -51t52.5 -20 t52.5 20t21.5 51t-21.5 51.5t-52.5 20.5t-52.5 -20.5t-21.5 -51.5z" />
<glyph unicode="&#xcc;" horiz-adv-x="567" d="M41 0h487v96h-184v1268h184v96h-487v-96h184v-1268h-184v-96zM80 1835l227 -283h119l-190 283h-156z" />
<glyph unicode="&#xcd;" horiz-adv-x="567" d="M41 0h487v96h-184v1268h184v96h-487v-96h184v-1268h-184v-96zM162 1552h117l227 283h-156z" />
<glyph unicode="&#xce;" horiz-adv-x="567" d="M29 1552h123l141 205l141 -205h123l-199 283h-131zM41 0h487v96h-184v1268h184v96h-487v-96h184v-1268h-184v-96z" />
<glyph unicode="&#xcf;" horiz-adv-x="567" d="M41 0h487v96h-184v1268h184v96h-487v-96h184v-1268h-184v-96zM43 1679q0 -31 21.5 -51t52.5 -20t52 20t21 51t-21.5 51.5t-51.5 20.5q-31 0 -52.5 -20.5t-21.5 -51.5zM395 1679q0 -31 21.5 -51t52.5 -20t52.5 20t21.5 51t-21.5 51.5t-52.5 20.5t-52.5 -20.5t-21.5 -51.5z " />
<glyph unicode="&#xd0;" horiz-adv-x="1308" d="M37 0h571q295 0 444.5 151.5t149.5 450.5v262q0 285 -147.5 440.5t-419.5 155.5h-598v-94l184 2v-537h-182v-90h182v-645h-184v-96zM342 96v645h352v90h-352v533h279q215 0 333.5 -131t118.5 -361v-270q0 -242 -122 -374t-351 -132h-258z" />
<glyph unicode="&#xd1;" horiz-adv-x="1386" d="M39 0h487v96h-188v1241l702 -1337h160v1364h166v96h-467v-96h186v-1214q-86 170 -171 332.5t-171 322.5t-171 322.5t-171 332.5h-362v-96h184v-1268h-184v-96zM408 1597h79q12 84 78 84q43 0 131 -45q88 -43 144 -43q139 1 155 189h-82q-10 -84 -75 -84q-43 0 -131 43 q-88 45 -144 45q-143 0 -155 -189z" />
<glyph unicode="&#xd2;" horiz-adv-x="1363" d="M104 602q0 -145 36 -260t104.5 -194.5t167 -122.5t225.5 -43h90q127 0 226.5 43t168 122.5t104.5 194.5t36 260v256q0 143 -36 259t-104.5 196t-168 123t-226.5 43h-90q-127 0 -225.5 -43t-167 -123t-104.5 -196t-36 -259v-256zM233 606v248q0 248 104.5 388t307.5 140 h74q205 0 309.5 -140t104.5 -388v-248q0 -248 -104.5 -388t-309.5 -140h-74q-203 0 -307.5 140t-104.5 388zM489 1835l228 -283h119l-191 283h-156z" />
<glyph unicode="&#xd3;" horiz-adv-x="1363" d="M104 602q0 -145 36 -260t104.5 -194.5t167 -122.5t225.5 -43h90q127 0 226.5 43t168 122.5t104.5 194.5t36 260v256q0 143 -36 259t-104.5 196t-168 123t-226.5 43h-90q-127 0 -225.5 -43t-167 -123t-104.5 -196t-36 -259v-256zM233 606v248q0 248 104.5 388t307.5 140 h74q205 0 309.5 -140t104.5 -388v-248q0 -248 -104.5 -388t-309.5 -140h-74q-203 0 -307.5 140t-104.5 388zM571 1552h117l227 283h-155z" />
<glyph unicode="&#xd4;" horiz-adv-x="1363" d="M104 602q0 -145 36 -260t104.5 -194.5t167 -122.5t225.5 -43h90q127 0 226.5 43t168 122.5t104.5 194.5t36 260v256q0 143 -36 259t-104.5 196t-168 123t-226.5 43h-90q-127 0 -225.5 -43t-167 -123t-104.5 -196t-36 -259v-256zM233 606v248q0 248 104.5 388t307.5 140 h74q205 0 309.5 -140t104.5 -388v-248q0 -248 -104.5 -388t-309.5 -140h-74q-203 0 -307.5 140t-104.5 388zM438 1552h123l141 205l142 -205h123l-199 283h-131z" />
<glyph unicode="&#xd5;" horiz-adv-x="1363" d="M104 602q0 -145 36 -260t104.5 -194.5t167 -122.5t225.5 -43h90q127 0 226.5 43t168 122.5t104.5 194.5t36 260v256q0 143 -36 259t-104.5 196t-168 123t-226.5 43h-90q-127 0 -225.5 -43t-167 -123t-104.5 -196t-36 -259v-256zM233 606v248q0 248 104.5 388t307.5 140 h74q205 0 309.5 -140t104.5 -388v-248q0 -248 -104.5 -388t-309.5 -140h-74q-203 0 -307.5 140t-104.5 388zM410 1597h79q12 84 78 84q43 0 131 -45q88 -43 144 -43q139 1 155 189h-82q-10 -84 -75 -84q-43 0 -131 43q-88 45 -144 45q-143 0 -155 -189z" />
<glyph unicode="&#xd6;" horiz-adv-x="1363" d="M104 602q0 -145 36 -260t104.5 -194.5t167 -122.5t225.5 -43h90q127 0 226.5 43t168 122.5t104.5 194.5t36 260v256q0 143 -36 259t-104.5 196t-168 123t-226.5 43h-90q-127 0 -225.5 -43t-167 -123t-104.5 -196t-36 -259v-256zM233 606v248q0 248 104.5 388t307.5 140 h74q205 0 309.5 -140t104.5 -388v-248q0 -248 -104.5 -388t-309.5 -140h-74q-203 0 -307.5 140t-104.5 388zM453 1679q0 -31 21.5 -51t51.5 -20q31 0 52.5 20t21.5 51t-21.5 51.5t-52.5 20.5t-52 -20.5t-21 -51.5zM805 1679q0 -31 21.5 -51t52.5 -20t52 20t21 51t-21.5 51.5 t-51.5 20.5q-31 0 -52.5 -20.5t-21.5 -51.5z" />
<glyph unicode="&#xd7;" horiz-adv-x="1267" d="M152 133l75 -76l406 406l405 -406l76 76l-405 406l405 405l-76 76l-405 -406l-406 406l-75 -76l405 -405z" />
<glyph unicode="&#xd8;" horiz-adv-x="1363" d="M84 10l53 -43l123 162q135 -147 377 -147h90q127 0 226.5 43t168 122.5t104.5 194.5t36 260v256q0 266 -117 424l131 170l-53 43l-123 -160q-131 143 -373 144h-90q-127 0 -225.5 -43t-167 -123t-104.5 -196t-36 -259v-256q0 -268 113 -420zM233 606v248q0 248 104.5 388 t307.5 140h74q203 0 307 -141v-2l-729 -952q-63 115 -64 319zM334 223l731 955q68 -115 68 -324v-248q0 -248 -104.5 -388t-309.5 -140h-74q-199 0 -307 139l-2 2q0 2 -2 4z" />
<glyph unicode="&#xd9;" horiz-adv-x="1292" d="M20 1364h150v-926q0 -457 432 -456h90q211 0 322.5 118.5t111.5 335.5v928h148v96h-467v-96h199v-926q0 -178 -82 -269t-244 -91h-70q-156 0 -237.5 92t-81.5 266v928h196v96h-467v-96zM444 1835l228 -283h119l-191 283h-156z" />
<glyph unicode="&#xda;" horiz-adv-x="1292" d="M20 1364h150v-926q0 -457 432 -456h90q211 0 322.5 118.5t111.5 335.5v928h148v96h-467v-96h199v-926q0 -178 -82 -269t-244 -91h-70q-156 0 -237.5 92t-81.5 266v928h196v96h-467v-96zM526 1552h117l227 283h-155z" />
<glyph unicode="&#xdb;" horiz-adv-x="1292" d="M20 1364h150v-926q0 -457 432 -456h90q211 0 322.5 118.5t111.5 335.5v928h148v96h-467v-96h199v-926q0 -178 -82 -269t-244 -91h-70q-156 0 -237.5 92t-81.5 266v928h196v96h-467v-96zM393 1552h123l141 205l142 -205h123l-199 283h-131z" />
<glyph unicode="&#xdc;" horiz-adv-x="1292" d="M20 1364h150v-926q0 -457 432 -456h90q211 0 322.5 118.5t111.5 335.5v928h148v96h-467v-96h199v-926q0 -178 -82 -269t-244 -91h-70q-156 0 -237.5 92t-81.5 266v928h196v96h-467v-96zM408 1679q0 -31 21.5 -51t51.5 -20q31 0 52.5 20t21.5 51t-21.5 51.5t-52.5 20.5 t-52 -20.5t-21 -51.5zM760 1679q0 -31 21.5 -51t52.5 -20t52 20t21 51t-21.5 51.5t-51.5 20.5q-31 0 -52.5 -20.5t-21.5 -51.5z" />
<glyph unicode="&#xdd;" horiz-adv-x="1224" d="M4 1364h125l426 -735v-533h-207v-96h535v96h-207v537l422 731h125v96h-437v-96h183l-355 -616l-350 616h195v96h-455v-96zM487 1552h117l227 283h-155z" />
<glyph unicode="&#xde;" horiz-adv-x="1083" d="M37 1364h186v-1268h-184v-96h522v96h-217v264h309q398 0 398 365v96q0 180 -101.5 269.5t-300.5 89.5h-305v184h215v96h-522v-96zM344 457v628h283q154 0 225.5 -65.5t71.5 -206.5v-84q0 -272 -293 -272h-287z" />
<glyph unicode="&#xdf;" d="M35 0h315v96h-69v991q0 86 18 143.5t50 91.5t77 48t98 14q104 0 169 -51t65 -176v-86q0 -117 -61.5 -178.5t-178.5 -61.5h-24v-100h28q272 0 273 -272v-103q0 -117 -53.5 -189.5t-166.5 -72.5h-79v-94h106q156 0 232.5 95.5t76.5 242.5v115q0 147 -66.5 230t-207.5 99 q123 14 180 86t57 189v102q0 319 -354 320q-168 0 -262 -87t-94 -296v-1002h-129v-94z" />
<glyph unicode="&#xe0;" d="M82 281q0 -137 67.5 -219t202.5 -82q123 0 211 39.5t152 138.5l-2 -158h248v94h-138v740q0 166 -77.5 251.5t-233.5 85.5h-78q-154 0 -236.5 -71.5t-82.5 -206.5v-37h114v25q0 197 211 196h58q106 0 157.5 -62.5t51.5 -205.5v-145h-271q-184 0 -269 -79t-85 -235v-69z M199 291v41q0 119 63.5 179t216.5 60q92 0 139.5 -8t88.5 -22v-133q-10 -72 -34 -132.5t-63 -105.5t-94 -70.5t-129 -25.5q-94 0 -141 62.5t-47 154.5zM285 1552l227 -282h119l-191 282h-155z" />
<glyph unicode="&#xe1;" d="M82 281q0 -137 67.5 -219t202.5 -82q123 0 211 39.5t152 138.5l-2 -158h248v94h-138v740q0 166 -77.5 251.5t-233.5 85.5h-78q-154 0 -236.5 -71.5t-82.5 -206.5v-37h114v25q0 197 211 196h58q106 0 157.5 -62.5t51.5 -205.5v-145h-271q-184 0 -269 -79t-85 -235v-69z M199 291v41q0 119 63.5 179t216.5 60q92 0 139.5 -8t88.5 -22v-133q-10 -72 -34 -132.5t-63 -105.5t-94 -70.5t-129 -25.5q-94 0 -141 62.5t-47 154.5zM365 1270h116l228 282h-156z" />
<glyph unicode="&#xe2;" d="M82 281q0 -137 67.5 -219t202.5 -82q123 0 211 39.5t152 138.5l-2 -158h248v94h-138v740q0 166 -77.5 251.5t-233.5 85.5h-78q-154 0 -236.5 -71.5t-82.5 -206.5v-37h114v25q0 197 211 196h58q106 0 157.5 -62.5t51.5 -205.5v-145h-271q-184 0 -269 -79t-85 -235v-69z M199 291v41q0 119 63.5 179t216.5 60q92 0 139.5 -8t88.5 -22v-133q-10 -72 -34 -132.5t-63 -105.5t-94 -70.5t-129 -25.5q-94 0 -141 62.5t-47 154.5zM231 1270h123l142 205l141 -205h123l-199 282h-131z" />
<glyph unicode="&#xe3;" d="M82 281q0 -137 67.5 -219t202.5 -82q123 0 211 39.5t152 138.5l-2 -158h248v94h-138v740q0 166 -77.5 251.5t-233.5 85.5h-78q-154 0 -236.5 -71.5t-82.5 -206.5v-37h114v25q0 197 211 196h58q106 0 157.5 -62.5t51.5 -205.5v-145h-271q-184 0 -269 -79t-85 -235v-69z M199 291v41q0 119 63.5 179t216.5 60q92 0 139.5 -8t88.5 -22v-133q-10 -72 -34 -132.5t-63 -105.5t-94 -70.5t-129 -25.5q-94 0 -141 62.5t-47 154.5zM203 1212h80q12 84 77 84q43 0 132 -45q88 -43 143 -43q140 1 156 189h-82q-10 -84 -76 -84q-43 0 -131 43 q-88 45 -144 45q-143 0 -155 -189z" />
<glyph unicode="&#xe4;" d="M82 281q0 -137 67.5 -219t202.5 -82q123 0 211 39.5t152 138.5l-2 -158h248v94h-138v740q0 166 -77.5 251.5t-233.5 85.5h-78q-154 0 -236.5 -71.5t-82.5 -206.5v-37h114v25q0 197 211 196h58q106 0 157.5 -62.5t51.5 -205.5v-145h-271q-184 0 -269 -79t-85 -235v-69z M199 291v41q0 119 63.5 179t216.5 60q92 0 139.5 -8t88.5 -22v-133q-10 -72 -34 -132.5t-63 -105.5t-94 -70.5t-129 -25.5q-94 0 -141 62.5t-47 154.5zM246 1294q0 -31 21.5 -51t51.5 -20q31 0 52.5 20t21.5 51t-21.5 51.5t-52.5 20.5t-52 -20.5t-21 -51.5zM598 1294 q0 -31 21.5 -51t52.5 -20t52 20t21 51t-21.5 51.5t-51.5 20.5q-31 0 -52.5 -20.5t-21.5 -51.5z" />
<glyph unicode="&#xe5;" d="M82 281q0 -137 67.5 -219t202.5 -82q123 0 211 39.5t152 138.5l-2 -158h248v94h-138v740q0 295 -239 331q39 25 62.5 65t23.5 89q0 74 -52.5 126t-125.5 52q-74 0 -127.5 -52t-53.5 -126q0 -47 22.5 -86t59.5 -64q-135 -10 -206.5 -80.5t-71.5 -195.5v-37h114v25 q0 197 211 196h58q106 0 157.5 -62.5t51.5 -205.5v-145h-271q-184 0 -269 -79t-85 -235v-69zM199 291v41q0 119 63.5 179t216.5 60q92 0 139.5 -8t88.5 -22v-133q-10 -72 -34 -132.5t-63 -105.5t-94 -70.5t-129 -25.5q-94 0 -141 62.5t-47 154.5zM385 1319q0 45 30.5 74.5 t76.5 29.5q43 0 73.5 -29.5t30.5 -74.5t-30.5 -75t-73.5 -30q-45 0 -76 30t-31 75z" />
<glyph unicode="&#xe6;" horiz-adv-x="1474" d="M82 281q0 -137 70.5 -219t212.5 -82q154 0 237.5 54t116.5 177q31 -123 106.5 -177t175.5 -54h95q55 0 105 23.5t88 68.5t60.5 111.5t22.5 152.5v26h-104v-18q0 -57 -13.5 -106.5t-38 -86t-60.5 -57t-81 -20.5h-74q-111 0 -165 111.5t-54 310.5v51h600l7 108 q14 242 -65 379t-232 137h-82q-106 0 -168 -49t-90 -135q-49 184 -254 184h-78q-147 0 -226 -71.5t-79 -206.5v-37h114v25q0 100 51.5 148t143.5 48h57q100 0 145.5 -62.5t47.5 -205.5l2 -160l-258 15q-174 10 -255 -74t-81 -240v-69zM199 291v41q0 119 60 179t204 60 q55 0 106.5 -6t77 -12t29.5 -6l-2 -139q-10 -72 -31.5 -132.5t-58.5 -105.5t-89.5 -70.5t-121.5 -25.5q-88 0 -131 62.5t-43 154.5zM782 639v20q0 190 54.5 304t158.5 114h62q111 0 163 -97.5t52 -277.5l-8 -63h-482z" />
<glyph unicode="&#xe7;" horiz-adv-x="952" d="M106 489q0 -229 94.5 -366t268.5 -143l-59 -125l22 -29l62 8q35 0 58 -19.5t23 -50.5t-19 -51t-50 -20q-53 0 -95 14t-51 19l-24 -68q20 -12 79.5 -23.5t127.5 -11.5q63 0 104 40t41 101q0 66 -38 103t-107 37h-29l39 76h51q113 0 191 100t88 278h-105q-6 -51 -21.5 -102 t-40 -91t-60 -65.5t-81.5 -25.5h-77q-66 0 -117 30.5t-86 88t-54.5 136.5t-19.5 175v147q0 96 18.5 175t54.5 134.5t86 86t116 30.5q129 0 197.5 -62.5t90.5 -178.5v-39h97v354h-64v-123q-55 63 -131 103t-199 40q-184 0 -282.5 -135t-98.5 -374v-173z" />
<glyph unicode="&#xe8;" horiz-adv-x="976" d="M86 489q0 -246 94 -377.5t287 -131.5h94q129 0 218 91t110 265v26h-105v-18q-10 -115 -69.5 -192.5t-167.5 -77.5h-74q-135 0 -203.5 111.5t-68.5 310.5v51h704v108q0 242 -93 379t-273 137h-82q-186 0 -278.5 -137t-92.5 -385v-160zM201 639v20q0 94 17.5 171t51 132.5 t82.5 85t111 29.5h61q129 0 196.5 -97t67.5 -278v-63h-587zM303 1532l227 -283h119l-190 283h-156z" />
<glyph unicode="&#xe9;" horiz-adv-x="976" d="M86 489q0 -246 94 -377.5t287 -131.5h94q129 0 218 91t110 265v26h-105v-18q-10 -115 -69.5 -192.5t-167.5 -77.5h-74q-135 0 -203.5 111.5t-68.5 310.5v51h704v108q0 242 -93 379t-273 137h-82q-186 0 -278.5 -137t-92.5 -385v-160zM201 639v20q0 94 17.5 171t51 132.5 t82.5 85t111 29.5h61q129 0 196.5 -97t67.5 -278v-63h-587zM385 1249h117l227 283h-156z" />
<glyph unicode="&#xea;" horiz-adv-x="976" d="M86 489q0 -246 94 -377.5t287 -131.5h94q129 0 218 91t110 265v26h-105v-18q-10 -115 -69.5 -192.5t-167.5 -77.5h-74q-135 0 -203.5 111.5t-68.5 310.5v51h704v108q0 242 -93 379t-273 137h-82q-186 0 -278.5 -137t-92.5 -385v-160zM201 639v20q0 94 17.5 171t51 132.5 t82.5 85t111 29.5h61q129 0 196.5 -97t67.5 -278v-63h-587zM252 1249h123l141 205l141 -205h123l-198 283h-131z" />
<glyph unicode="&#xeb;" horiz-adv-x="976" d="M86 489q0 -246 94 -377.5t287 -131.5h94q129 0 218 91t110 265v26h-105v-18q-10 -115 -69.5 -192.5t-167.5 -77.5h-74q-135 0 -203.5 111.5t-68.5 310.5v51h704v108q0 242 -93 379t-273 137h-82q-186 0 -278.5 -137t-92.5 -385v-160zM201 639v20q0 94 17.5 171t51 132.5 t82.5 85t111 29.5h61q129 0 196.5 -97t67.5 -278v-63h-587zM266 1294q0 -31 21.5 -51t52.5 -20t52.5 20t21.5 51t-21.5 51.5t-52.5 20.5t-52.5 -20.5t-21.5 -51.5zM618 1294q0 -31 22 -51t52 -20q31 0 52.5 20t21.5 51t-21.5 51.5t-52.5 20.5t-52.5 -20.5t-21.5 -51.5z" />
<glyph unicode="&#xec;" horiz-adv-x="501" d="M16 1532l228 -283h118l-190 283h-156zM31 0h430v94h-152v1057h-278v-94h159v-963h-159v-94z" />
<glyph unicode="&#xed;" horiz-adv-x="501" d="M31 0h430v94h-152v1057h-278v-94h159v-963h-159v-94zM98 1249h117l227 283h-155z" />
<glyph unicode="&#xee;" horiz-adv-x="501" d="M-35 1249h123l141 205l142 -205h123l-199 283h-131zM31 0h430v94h-152v1057h-278v-94h159v-963h-159v-94z" />
<glyph unicode="&#xef;" horiz-adv-x="501" d="M-20 1294q0 -31 21.5 -51t51.5 -20q31 0 52.5 20t21.5 51t-21.5 51.5t-52.5 20.5t-52 -20.5t-21 -51.5zM31 0h430v94h-152v1057h-278v-94h159v-963h-159v-94zM332 1294q0 -31 21.5 -51t52.5 -20t52 20t21 51t-21.5 51.5t-51.5 20.5q-31 0 -52.5 -20.5t-21.5 -51.5z" />
<glyph unicode="&#xf0;" horiz-adv-x="1015" d="M84 461q0 -109 26.5 -197t74.5 -152.5t117 -99.5t155 -35h110q86 0 153.5 36t116 102.5t73 159.5t24.5 208v168q0 285 -162 467q-29 33 -76 74t-112 92l215 98l-64 66l-235 -109q-78 53 -260 140l-60 -56q156 -37 277 -102l-254 -117l55 -65l283 127h2q154 -106 205 -242 q-57 61 -135 81.5t-160 20.5q-86 0 -155 -35.5t-116 -100t-72.5 -156t-25.5 -201.5v-172zM201 473v148q0 92 18.5 167.5t53 130t86 84t116.5 29.5h70q133 0 202.5 -114.5t69.5 -303.5v-135q0 -186 -72.5 -296.5t-203.5 -110.5h-62q-131 0 -204.5 110.5t-73.5 290.5z" />
<glyph unicode="&#xf1;" horiz-adv-x="1083" d="M31 1057h159v-963h-157v-94h422v94h-148v666q0 70 21.5 128t59.5 100t91 65.5t119 23.5q98 0 144 -75.5t46 -217.5v-690h-159v-94h424v94h-148v719q0 174 -68.5 266t-209.5 92q-98 0 -182.5 -31.5t-137.5 -113.5v125h-276v-94zM279 1212h79q12 84 78 84q43 0 131 -45 q88 -43 144 -43q139 1 155 189h-82q-10 -84 -75 -84q-43 0 -131 43q-88 45 -144 45q-143 0 -155 -189z" />
<glyph unicode="&#xf2;" horiz-adv-x="1015" d="M86 498q0 -240 97.5 -379t275.5 -139h102q178 0 276.5 139t98.5 379v155q0 240 -97.5 379t-277.5 139h-102q-178 0 -275.5 -139t-97.5 -379v-155zM203 508v135q0 199 70.5 316.5t205.5 117.5h62q135 0 206.5 -117.5t71.5 -316.5v-135q0 -199 -71.5 -316.5t-206.5 -117.5 h-62q-135 0 -205.5 117.5t-70.5 316.5zM305 1532l227 -283h119l-190 283h-156z" />
<glyph unicode="&#xf3;" horiz-adv-x="1015" d="M86 498q0 -240 97.5 -379t275.5 -139h102q178 0 276.5 139t98.5 379v155q0 240 -97.5 379t-277.5 139h-102q-178 0 -275.5 -139t-97.5 -379v-155zM203 508v135q0 199 70.5 316.5t205.5 117.5h62q135 0 206.5 -117.5t71.5 -316.5v-135q0 -199 -71.5 -316.5t-206.5 -117.5 h-62q-135 0 -205.5 117.5t-70.5 316.5zM387 1249h117l227 283h-156z" />
<glyph unicode="&#xf4;" horiz-adv-x="1015" d="M86 498q0 -240 97.5 -379t275.5 -139h102q178 0 276.5 139t98.5 379v155q0 240 -97.5 379t-277.5 139h-102q-178 0 -275.5 -139t-97.5 -379v-155zM203 508v135q0 199 70.5 316.5t205.5 117.5h62q135 0 206.5 -117.5t71.5 -316.5v-135q0 -199 -71.5 -316.5t-206.5 -117.5 h-62q-135 0 -205.5 117.5t-70.5 316.5zM254 1249h123l141 205l141 -205h123l-198 283h-131z" />
<glyph unicode="&#xf5;" horiz-adv-x="1015" d="M86 498q0 -240 97.5 -379t275.5 -139h102q178 0 276.5 139t98.5 379v155q0 240 -97.5 379t-277.5 139h-102q-178 0 -275.5 -139t-97.5 -379v-155zM203 508v135q0 199 70.5 316.5t205.5 117.5h62q135 0 206.5 -117.5t71.5 -316.5v-135q0 -199 -71.5 -316.5t-206.5 -117.5 h-62q-135 0 -205.5 117.5t-70.5 316.5zM225 1212h80q12 84 78 84q43 0 131 -45q88 -43 143 -43q140 1 156 189h-82q-10 -84 -76 -84q-43 0 -131 43q-88 45 -143 45q-143 0 -156 -189z" />
<glyph unicode="&#xf6;" horiz-adv-x="1015" d="M86 498q0 -240 97.5 -379t275.5 -139h102q178 0 276.5 139t98.5 379v155q0 240 -97.5 379t-277.5 139h-102q-178 0 -275.5 -139t-97.5 -379v-155zM203 508v135q0 199 70.5 316.5t205.5 117.5h62q135 0 206.5 -117.5t71.5 -316.5v-135q0 -199 -71.5 -316.5t-206.5 -117.5 h-62q-135 0 -205.5 117.5t-70.5 316.5zM268 1294q0 -31 21.5 -51t52.5 -20t52.5 20t21.5 51t-21.5 51.5t-52.5 20.5t-52.5 -20.5t-21.5 -51.5zM621 1294q0 -31 21.5 -51t51.5 -20q31 0 52.5 20t21.5 51t-21.5 51.5t-52.5 20.5t-52 -20.5t-21 -51.5z" />
<glyph unicode="&#xf7;" horiz-adv-x="1267" d="M70 481h1130v115h-1130v-115zM565 -4h152v154h-152v-154zM565 856h152v154h-152v-154z" />
<glyph unicode="&#xf8;" horiz-adv-x="1015" d="M53 8l51 -43l95 131q88 -117 258 -116h102q176 0 272.5 139t96.5 379v155q0 217 -74 344l107 148l-52 45l-96 -133q-90 115 -254 114h-102q-178 0 -274.5 -139t-96.5 -379v-155q0 -217 74 -342zM203 508v135q0 199 69.5 316.5t204.5 117.5h62q131 0 200 -119v-2 l-499 -692q-37 92 -37 244zM270 195l504 692q37 -90 37 -244v-135q0 -199 -70.5 -316.5t-201.5 -117.5h-62q-135 0 -205 116q0 2 -2 5z" />
<glyph unicode="&#xf9;" horiz-adv-x="1083" d="M35 1057h143v-709q0 -180 67.5 -274t209.5 -94q106 0 191 39.5t136 119.5v-139h269v94h-154v1057h-268v-94h151v-666q0 -68 -21.5 -126t-60.5 -100t-91 -66.5t-113 -24.5q-106 0 -152.5 71.5t-46.5 219.5v786h-260v-94zM328 1511l227 -282h119l-191 282h-155z" />
<glyph unicode="&#xfa;" horiz-adv-x="1083" d="M35 1057h143v-709q0 -180 67.5 -274t209.5 -94q106 0 191 39.5t136 119.5v-139h269v94h-154v1057h-268v-94h151v-666q0 -68 -21.5 -126t-60.5 -100t-91 -66.5t-113 -24.5q-106 0 -152.5 71.5t-46.5 219.5v786h-260v-94zM410 1229h116l228 282h-156z" />
<glyph unicode="&#xfb;" horiz-adv-x="1083" d="M35 1057h143v-709q0 -180 67.5 -274t209.5 -94q106 0 191 39.5t136 119.5v-139h269v94h-154v1057h-268v-94h151v-666q0 -68 -21.5 -126t-60.5 -100t-91 -66.5t-113 -24.5q-106 0 -152.5 71.5t-46.5 219.5v786h-260v-94zM276 1229h123l142 205l141 -205h123l-199 282h-131 z" />
<glyph unicode="&#xfc;" horiz-adv-x="1083" d="M35 1057h143v-709q0 -180 67.5 -274t209.5 -94q106 0 191 39.5t136 119.5v-139h269v94h-154v1057h-268v-94h151v-666q0 -68 -21.5 -126t-60.5 -100t-91 -66.5t-113 -24.5q-106 0 -152.5 71.5t-46.5 219.5v786h-260v-94zM291 1294q0 -31 21.5 -51t52.5 -20t52 20t21 51 t-21.5 51.5t-51.5 20.5q-31 0 -52.5 -20.5t-21.5 -51.5zM643 1294q0 -31 21.5 -51t52.5 -20t52.5 20t21.5 51t-21.5 51.5t-52.5 20.5t-52.5 -20.5t-21.5 -51.5z" />
<glyph unicode="&#xfd;" d="M18 1057h101l325 -1028l-75 -236q-10 -23 -19 -45l-8 -22h-143v-95h256v95l24 61l410 1270h84v94h-344v-94h145l-270 -873l-266 873h145v94h-365v-94zM373 1167h116l228 283h-156z" />
<glyph unicode="&#xfe;" horiz-adv-x="1071" d="M4 1366h160v-1620h-148v-94h420v94h-153v393q57 -86 148 -122.5t196 -36.5q174 0 268 138t94 374v167q0 236 -91 374t-265 138q-111 0 -200 -39.5t-150 -125.5v454h-279v-94zM274 453v213q0 199 89.5 305t236.5 106q131 0 201.5 -114.5t70.5 -313.5v-147 q0 -197 -71.5 -312.5t-200.5 -115.5q-74 0 -134 27.5t-102 76.5t-66 119t-24 156z" />
<glyph unicode="&#xff;" d="M18 1057h101l325 -1028l-75 -236q-10 -23 -19 -45l-8 -22h-143v-95h256v95l24 61l410 1270h84v94h-344v-94h145l-270 -873l-266 873h145v94h-365v-94zM254 1294q0 -31 21.5 -51t52.5 -20t52 20t21 51t-21.5 51.5t-51.5 20.5q-31 0 -52.5 -20.5t-21.5 -51.5zM606 1294 q0 -31 21.5 -51t52.5 -20t52.5 20t21.5 51t-21.5 51.5t-52.5 20.5t-52.5 -20.5t-21.5 -51.5z" />
<glyph unicode="&#x152;" horiz-adv-x="1845" d="M102 590q0 -141 36 -254t103.5 -191.5t164 -120.5t219.5 -42q47 0 91 1t85 3t75.5 6t65.5 8h801v428h-109v-332h-581v602h348v-182h92v453h-92v-174l-348 2v567h575v-315h107v411h-783q-55 8 -128.5 13.5t-159.5 5.5q-281 0 -421.5 -155t-140.5 -458v-276zM231 596v266 q0 258 105.5 389t327.5 131h90q80 0 134 -15t54 -42v-1194q0 -23 -64.5 -38t-152.5 -15h-94q-193 0 -296.5 138t-103.5 380z" />
<glyph unicode="&#x153;" horiz-adv-x="1556" d="M86 498q0 -240 84 -379t248 -139h102q117 0 187.5 64.5t97.5 164.5q29 -104 103.5 -166.5t191.5 -62.5h94q53 0 102.5 23.5t86 68.5t59 111.5t22.5 152.5v26h-104v-18q0 -57 -13.5 -106.5t-40 -86t-63.5 -57t-82 -20.5h-74q-117 0 -172 111.5t-55 310.5v51h608l13 108 q0 242 -77 379t-233 137h-81q-104 0 -178 -60t-107 -177q-10 45 -30.5 88t-53.5 75.5t-80 53t-109 20.5h-102q-168 0 -256 -139t-88 -379v-155zM203 508v135q0 199 61.5 316.5t184.5 117.5h61q119 0 181.5 -117.5t62.5 -316.5v-135q0 -199 -62.5 -316.5t-181.5 -117.5h-61 q-123 0 -184.5 117.5t-61.5 316.5zM860 639v20q0 190 57.5 304t163.5 114h62q111 0 166 -97.5t55 -277.5l-6 -63h-498z" />
<glyph unicode="&#x178;" horiz-adv-x="1224" d="M4 1364h125l426 -735v-533h-207v-96h535v96h-207v537l422 731h125v96h-437v-96h183l-355 -616l-350 616h195v96h-455v-96zM369 1679q0 -31 21.5 -51t51.5 -20q31 0 52.5 20t21.5 51t-21.5 51.5t-52.5 20.5t-52 -20.5t-21 -51.5zM721 1679q0 -31 21.5 -51t52.5 -20t52 20 t21 51t-21.5 51.5t-51.5 20.5q-31 0 -52.5 -20.5t-21.5 -51.5z" />
<glyph unicode="&#x2c6;" horiz-adv-x="536" d="M4 1167h123l141 205l142 -205h122l-198 283h-131z" />
<glyph unicode="&#x2dc;" horiz-adv-x="536" d="M-25 1212h80q12 84 78 84q43 0 131 -45q88 -43 144 -43q139 1 155 189h-82q-10 -84 -75 -84q-43 0 -132 43q-88 45 -143 45q-143 0 -156 -189z" />
<glyph unicode="&#x2000;" horiz-adv-x="925" />
<glyph unicode="&#x2001;" horiz-adv-x="1851" />
<glyph unicode="&#x2002;" horiz-adv-x="925" />
<glyph unicode="&#x2003;" horiz-adv-x="1851" />
<glyph unicode="&#x2004;" horiz-adv-x="617" />
<glyph unicode="&#x2005;" horiz-adv-x="462" />
<glyph unicode="&#x2006;" horiz-adv-x="308" />
<glyph unicode="&#x2007;" horiz-adv-x="308" />
<glyph unicode="&#x2008;" horiz-adv-x="231" />
<glyph unicode="&#x2009;" horiz-adv-x="370" />
<glyph unicode="&#x200a;" horiz-adv-x="102" />
<glyph unicode="&#x2010;" horiz-adv-x="724" d="M113 670h501v98h-501v-98z" />
<glyph unicode="&#x2011;" horiz-adv-x="724" d="M113 670h501v98h-501v-98z" />
<glyph unicode="&#x2012;" horiz-adv-x="724" d="M113 670h501v98h-501v-98z" />
<glyph unicode="&#x2013;" horiz-adv-x="1024" d="M14 502h996v92h-996v-92z" />
<glyph unicode="&#x2014;" horiz-adv-x="1808" d="M14 502h1780v92h-1780v-92z" />
<glyph unicode="&#x2018;" horiz-adv-x="518" d="M147 1022h56q70 0 76 -2q8 0 8 55v53h-43l116 332h-94l-119 -332v-106z" />
<glyph unicode="&#x2019;" horiz-adv-x="518" d="M147 1022h95l118 332v106h-51h-80q-8 0 -8 -49v-57h45z" />
<glyph unicode="&#x201a;" horiz-adv-x="475" d="M109 -281h96l114 283l3 2v47v107q-37 0 -74 -1t-76 -1v-152h39z" />
<glyph unicode="&#x201c;" horiz-adv-x="821" d="M145 1022h56q70 0 75 -2q8 0 9 55v53h-43l116 332h-94l-119 -332v-106zM459 1022h55q70 0 76 -2q8 0 8 55v53h-43l117 332h-94l-119 -332v-106z" />
<glyph unicode="&#x201d;" horiz-adv-x="821" d="M145 1022h95l118 332v106h-51h-80q-8 0 -8 -49v-57h45zM459 1022h94l119 332v106h-51h-80q-8 0 -9 -49v-57h46z" />
<glyph unicode="&#x201e;" horiz-adv-x="821" d="M109 -281h96l114 283l3 2v47v107q-37 0 -74 -1t-76 -1v-152h39zM358 84v106v-106zM477 -281h96l115 283l2 2v47v107q-37 0 -73.5 -1t-75.5 -1v-152h39z" />
<glyph unicode="&#x2022;" horiz-adv-x="821" d="M172 737q0 -53 19.5 -98t53.5 -79t80 -53.5t99 -19.5q51 0 97 19.5t80 53.5t53.5 79t19.5 98q0 51 -19.5 97.5t-53.5 80t-80 53t-99 19.5t-98 -19.5t-79 -53t-53.5 -80t-19.5 -97.5z" />
<glyph unicode="&#x2026;" horiz-adv-x="2048" d="M279 -4h151v154h-151v-154zM954 -4h152v154h-152v-154zM1630 -4h152v154h-152v-154z" />
<glyph unicode="&#x202f;" horiz-adv-x="370" />
<glyph unicode="&#x2039;" horiz-adv-x="528" d="M117 532l186 -413l94 16l-176 397l178 398l-94 16z" />
<glyph unicode="&#x203a;" horiz-adv-x="528" d="M129 930l180 -398l-178 -397l94 -16l189 413l-191 414z" />
<glyph unicode="&#x205f;" horiz-adv-x="462" />
<glyph unicode="&#x2122;" horiz-adv-x="1902" d="M90 1212h60v191h202v-694h-123v-54h314v54h-123v694h201v-191h59v248h-590v-248zM821 1407h105v-698h-103v-54h260v54h-94v698l252 -694h57l254 694v-698h-94v-54h260v54h-102v698h102v53h-209l-237 -655l-238 655h-213v-53z" />
<glyph unicode="&#x25fc;" horiz-adv-x="1146" d="M0 0v1147h1147v-1147h-1147z" />
</font>
</defs>
</svg>
